<svg width="420" height="310" viewBox="0 0 420 310" fill="none" xmlns="http://www.w3.org/2000/svg">
<g clip-path="url(#clip0_93_81)">
<path fill-rule="evenodd" clip-rule="evenodd" d="M313.68 278.224C317.011 275.894 323.897 270.622 328.764 268.995L328.79 282.523C325.675 282.196 323.88 281.788 320.869 281.06C318.099 280.398 315.769 280.145 313.68 278.224ZM345.35 282.515L345.332 262.169C371.289 254.804 370.702 255.818 397.496 246.213C391.663 261.867 368.597 281.583 345.35 282.515ZM298.053 270.581C294.239 268.349 285.006 260.052 283.763 255.352C291.633 250.178 291.987 245.714 308.33 238.014C327.03 229.202 350.156 227.478 373.792 216.908C388.91 210.148 390.92 205.546 400.085 199.644C402.026 208.898 404.192 213.5 403.226 224.559C392.922 229.677 393.518 231.336 378.192 236.764C368.554 240.18 358.25 242.175 348.051 245.028C338.757 247.635 328.626 251.02 320.618 255.107C316.261 257.33 312.516 259.701 308.96 262.096L298.044 270.572L298.053 270.581ZM275.522 241.268C273.21 237.213 271.967 229.513 271.639 224.355C271.397 220.562 270.854 217.832 273.201 215.658C278.663 210.59 302.014 201.426 311.454 199.971C311.463 224.347 313.983 218.331 301.686 223.832C284.048 231.736 282.046 237.107 275.522 241.268ZM328.169 195.672C338.524 191.944 345.634 189.982 355.247 185.258C367.276 179.348 373.602 171.778 377.761 170.225C379.953 173.168 387.736 177.868 391.317 184.358C382.265 199.088 344.228 213.353 327.996 214.342L328.169 195.672ZM277.567 194.642C284.531 173.454 320.42 153.378 338.921 158.192L339.283 174.958C335.021 178.154 314.975 182.748 308.115 184.473C295.507 187.636 280.493 193.955 277.567 194.642ZM355.834 160.122L361.512 161.969C359.269 164.07 359.061 165.043 355.705 166.22L355.834 160.122ZM255.174 225.123C257.944 266.314 295.516 301.921 342.744 298.627C386.537 295.569 422.745 260.763 419.837 215.674C417.171 174.329 379.487 138.803 331.992 142.236C288.552 145.375 252.163 180.328 255.174 225.123Z" fill="#ABB2BF"/>
</g>
<g clip-path="url(#clip1_93_81)">
<path d="M5.39991 147.8C8.38219 147.8 10.7998 145.382 10.7998 142.4C10.7998 139.418 8.38219 137 5.39991 137C2.41762 137 0 139.418 0 142.4C0 145.382 2.41762 147.8 5.39991 147.8Z" fill="#ABB2BF"/>
<path d="M5.39991 180.2C8.38219 180.2 10.7998 177.782 10.7998 174.8C10.7998 171.818 8.38219 169.4 5.39991 169.4C2.41762 169.4 0 171.818 0 174.8C0 177.782 2.41762 180.2 5.39991 180.2Z" fill="#ABB2BF"/>
<path d="M5.39991 212.6C8.38219 212.6 10.7998 210.182 10.7998 207.2C10.7998 204.218 8.38219 201.8 5.39991 201.8C2.41762 201.8 0 204.218 0 207.2C0 210.182 2.41762 212.6 5.39991 212.6Z" fill="#ABB2BF"/>
<path d="M5.39991 245C8.38219 245 10.7998 242.582 10.7998 239.6C10.7998 236.618 8.38219 234.2 5.39991 234.2C2.41762 234.2 0 236.618 0 239.6C0 242.582 2.41762 245 5.39991 245Z" fill="#ABB2BF"/>
<path d="M5.39991 277.4C8.38219 277.4 10.7998 274.982 10.7998 272C10.7998 269.018 8.38219 266.6 5.39991 266.6C2.41762 266.6 0 269.018 0 272C0 274.982 2.41762 277.4 5.39991 277.4Z" fill="#ABB2BF"/>
<path d="M5.39991 309.8C8.38219 309.8 10.7998 307.382 10.7998 304.4C10.7998 301.418 8.38219 299 5.39991 299C2.41762 299 0 301.418 0 304.4C0 307.382 2.41762 309.8 5.39991 309.8Z" fill="#ABB2BF"/>
<path d="M37.7998 147.8C40.7821 147.8 43.1997 145.382 43.1997 142.4C43.1997 139.418 40.7821 137 37.7998 137C34.8175 137 32.3999 139.418 32.3999 142.4C32.3999 145.382 34.8175 147.8 37.7998 147.8Z" fill="#ABB2BF"/>
<path d="M37.7998 180.2C40.7821 180.2 43.1997 177.782 43.1997 174.8C43.1997 171.818 40.7821 169.4 37.7998 169.4C34.8175 169.4 32.3999 171.818 32.3999 174.8C32.3999 177.782 34.8175 180.2 37.7998 180.2Z" fill="#ABB2BF"/>
<path d="M37.7998 212.6C40.7821 212.6 43.1997 210.182 43.1997 207.2C43.1997 204.218 40.7821 201.8 37.7998 201.8C34.8175 201.8 32.3999 204.218 32.3999 207.2C32.3999 210.182 34.8175 212.6 37.7998 212.6Z" fill="#ABB2BF"/>
<path d="M37.7998 245C40.7821 245 43.1997 242.582 43.1997 239.6C43.1997 236.618 40.7821 234.2 37.7998 234.2C34.8175 234.2 32.3999 236.618 32.3999 239.6C32.3999 242.582 34.8175 245 37.7998 245Z" fill="#ABB2BF"/>
<path d="M37.7998 277.4C40.7821 277.4 43.1997 274.982 43.1997 272C43.1997 269.018 40.7821 266.6 37.7998 266.6C34.8175 266.6 32.3999 269.018 32.3999 272C32.3999 274.982 34.8175 277.4 37.7998 277.4Z" fill="#ABB2BF"/>
<path d="M37.7998 309.8C40.7821 309.8 43.1997 307.382 43.1997 304.4C43.1997 301.418 40.7821 299 37.7998 299C34.8175 299 32.3999 301.418 32.3999 304.4C32.3999 307.382 34.8175 309.8 37.7998 309.8Z" fill="#ABB2BF"/>
<path d="M70.1997 147.8C73.182 147.8 75.5996 145.382 75.5996 142.4C75.5996 139.418 73.182 137 70.1997 137C67.2174 137 64.7998 139.418 64.7998 142.4C64.7998 145.382 67.2174 147.8 70.1997 147.8Z" fill="#ABB2BF"/>
<path d="M70.1997 180.2C73.182 180.2 75.5996 177.782 75.5996 174.8C75.5996 171.818 73.182 169.4 70.1997 169.4C67.2174 169.4 64.7998 171.818 64.7998 174.8C64.7998 177.782 67.2174 180.2 70.1997 180.2Z" fill="#ABB2BF"/>
<path d="M70.1997 212.6C73.182 212.6 75.5996 210.182 75.5996 207.2C75.5996 204.218 73.182 201.8 70.1997 201.8C67.2174 201.8 64.7998 204.218 64.7998 207.2C64.7998 210.182 67.2174 212.6 70.1997 212.6Z" fill="#ABB2BF"/>
<path d="M70.1997 245C73.182 245 75.5996 242.582 75.5996 239.6C75.5996 236.618 73.182 234.2 70.1997 234.2C67.2174 234.2 64.7998 236.618 64.7998 239.6C64.7998 242.582 67.2174 245 70.1997 245Z" fill="#ABB2BF"/>
<path d="M70.1997 277.4C73.182 277.4 75.5996 274.982 75.5996 272C75.5996 269.018 73.182 266.6 70.1997 266.6C67.2174 266.6 64.7998 269.018 64.7998 272C64.7998 274.982 67.2174 277.4 70.1997 277.4Z" fill="#ABB2BF"/>
<path d="M70.1997 309.8C73.182 309.8 75.5996 307.382 75.5996 304.4C75.5996 301.418 73.182 299 70.1997 299C67.2174 299 64.7998 301.418 64.7998 304.4C64.7998 307.382 67.2174 309.8 70.1997 309.8Z" fill="#ABB2BF"/>
<path d="M102.6 147.8C105.582 147.8 108 145.382 108 142.4C108 139.418 105.582 137 102.6 137C99.6178 137 97.2002 139.418 97.2002 142.4C97.2002 145.382 99.6178 147.8 102.6 147.8Z" fill="#ABB2BF"/>
<path d="M102.6 180.2C105.582 180.2 108 177.782 108 174.8C108 171.818 105.582 169.4 102.6 169.4C99.6178 169.4 97.2002 171.818 97.2002 174.8C97.2002 177.782 99.6178 180.2 102.6 180.2Z" fill="#ABB2BF"/>
<path d="M102.6 212.6C105.582 212.6 108 210.182 108 207.2C108 204.218 105.582 201.8 102.6 201.8C99.6178 201.8 97.2002 204.218 97.2002 207.2C97.2002 210.182 99.6178 212.6 102.6 212.6Z" fill="#ABB2BF"/>
<path d="M102.6 245C105.582 245 108 242.582 108 239.6C108 236.618 105.582 234.2 102.6 234.2C99.6178 234.2 97.2002 236.618 97.2002 239.6C97.2002 242.582 99.6178 245 102.6 245Z" fill="#ABB2BF"/>
<path d="M102.6 277.4C105.582 277.4 108 274.982 108 272C108 269.018 105.582 266.6 102.6 266.6C99.6178 266.6 97.2002 269.018 97.2002 272C97.2002 274.982 99.6178 277.4 102.6 277.4Z" fill="#ABB2BF"/>
<path d="M102.6 309.8C105.582 309.8 108 307.382 108 304.4C108 301.418 105.582 299 102.6 299C99.6178 299 97.2002 301.418 97.2002 304.4C97.2002 307.382 99.6178 309.8 102.6 309.8Z" fill="#ABB2BF"/>
<path d="M135 147.8C137.982 147.8 140.4 145.382 140.4 142.4C140.4 139.418 137.982 137 135 137C132.018 137 129.6 139.418 129.6 142.4C129.6 145.382 132.018 147.8 135 147.8Z" fill="#ABB2BF"/>
<path d="M135 180.2C137.982 180.2 140.4 177.782 140.4 174.8C140.4 171.818 137.982 169.4 135 169.4C132.018 169.4 129.6 171.818 129.6 174.8C129.6 177.782 132.018 180.2 135 180.2Z" fill="#ABB2BF"/>
<path d="M135 212.6C137.982 212.6 140.4 210.182 140.4 207.2C140.4 204.218 137.982 201.8 135 201.8C132.018 201.8 129.6 204.218 129.6 207.2C129.6 210.182 132.018 212.6 135 212.6Z" fill="#ABB2BF"/>
<path d="M135 245C137.982 245 140.4 242.582 140.4 239.6C140.4 236.618 137.982 234.2 135 234.2C132.018 234.2 129.6 236.618 129.6 239.6C129.6 242.582 132.018 245 135 245Z" fill="#ABB2BF"/>
<path d="M135 277.4C137.982 277.4 140.4 274.982 140.4 272C140.4 269.018 137.982 266.6 135 266.6C132.018 266.6 129.6 269.018 129.6 272C129.6 274.982 132.018 277.4 135 277.4Z" fill="#ABB2BF"/>
<path d="M135 309.8C137.982 309.8 140.4 307.382 140.4 304.4C140.4 301.418 137.982 299 135 299C132.018 299 129.6 301.418 129.6 304.4C129.6 307.382 132.018 309.8 135 309.8Z" fill="#ABB2BF"/>
<path d="M167.4 147.8C170.382 147.8 172.8 145.382 172.8 142.4C172.8 139.418 170.382 137 167.4 137C164.418 137 162 139.418 162 142.4C162 145.382 164.418 147.8 167.4 147.8Z" fill="#ABB2BF"/>
<path d="M167.4 180.2C170.382 180.2 172.8 177.782 172.8 174.8C172.8 171.818 170.382 169.4 167.4 169.4C164.418 169.4 162 171.818 162 174.8C162 177.782 164.418 180.2 167.4 180.2Z" fill="#ABB2BF"/>
<path d="M167.4 212.6C170.382 212.6 172.8 210.182 172.8 207.2C172.8 204.218 170.382 201.8 167.4 201.8C164.418 201.8 162 204.218 162 207.2C162 210.182 164.418 212.6 167.4 212.6Z" fill="#ABB2BF"/>
<path d="M167.4 245C170.382 245 172.8 242.582 172.8 239.6C172.8 236.618 170.382 234.2 167.4 234.2C164.418 234.2 162 236.618 162 239.6C162 242.582 164.418 245 167.4 245Z" fill="#ABB2BF"/>
<path d="M167.4 277.4C170.382 277.4 172.8 274.982 172.8 272C172.8 269.018 170.382 266.6 167.4 266.6C164.418 266.6 162 269.018 162 272C162 274.982 164.418 277.4 167.4 277.4Z" fill="#ABB2BF"/>
<path d="M167.4 309.8C170.382 309.8 172.8 307.382 172.8 304.4C172.8 301.418 170.382 299 167.4 299C164.418 299 162 301.418 162 304.4C162 307.382 164.418 309.8 167.4 309.8Z" fill="#ABB2BF"/>
</g>
<g clip-path="url(#clip2_93_81)">
<path d="M192.681 7.36237C194.714 7.36237 196.362 5.71425 196.362 3.68119C196.362 1.64812 194.714 0 192.681 0C190.648 0 189 1.64812 189 3.68119C189 5.71425 190.648 7.36237 192.681 7.36237Z" fill="#ABB2BF"/>
<path d="M192.681 29.4499C194.714 29.4499 196.362 27.8018 196.362 25.7687C196.362 23.7356 194.714 22.0875 192.681 22.0875C190.648 22.0875 189 23.7356 189 25.7687C189 27.8018 190.648 29.4499 192.681 29.4499Z" fill="#ABB2BF"/>
<path d="M192.681 51.5374C194.714 51.5374 196.362 49.8892 196.362 47.8562C196.362 45.8231 194.714 44.175 192.681 44.175C190.648 44.175 189 45.8231 189 47.8562C189 49.8892 190.648 51.5374 192.681 51.5374Z" fill="#ABB2BF"/>
<path d="M192.681 73.6249C194.714 73.6249 196.362 71.9768 196.362 69.9437C196.362 67.9106 194.714 66.2625 192.681 66.2625C190.648 66.2625 189 67.9106 189 69.9437C189 71.9768 190.648 73.6249 192.681 73.6249Z" fill="#ABB2BF"/>
<path d="M192.681 95.7123C194.714 95.7123 196.362 94.0642 196.362 92.0312C196.362 89.9981 194.714 88.35 192.681 88.35C190.648 88.35 189 89.9981 189 92.0312C189 94.0642 190.648 95.7123 192.681 95.7123Z" fill="#ABB2BF"/>
<path d="M192.681 117.8C194.714 117.8 196.362 116.152 196.362 114.119C196.362 112.086 194.714 110.438 192.681 110.438C190.648 110.438 189 112.086 189 114.119C189 116.152 190.648 117.8 192.681 117.8Z" fill="#ABB2BF"/>
<path d="M214.769 7.36237C216.802 7.36237 218.45 5.71425 218.45 3.68119C218.45 1.64812 216.802 0 214.769 0C212.736 0 211.087 1.64812 211.087 3.68119C211.087 5.71425 212.736 7.36237 214.769 7.36237Z" fill="#ABB2BF"/>
<path d="M214.769 29.4499C216.802 29.4499 218.45 27.8018 218.45 25.7687C218.45 23.7356 216.802 22.0875 214.769 22.0875C212.736 22.0875 211.087 23.7356 211.087 25.7687C211.087 27.8018 212.736 29.4499 214.769 29.4499Z" fill="#ABB2BF"/>
<path d="M214.769 51.5374C216.802 51.5374 218.45 49.8892 218.45 47.8562C218.45 45.8231 216.802 44.175 214.769 44.175C212.736 44.175 211.087 45.8231 211.087 47.8562C211.087 49.8892 212.736 51.5374 214.769 51.5374Z" fill="#ABB2BF"/>
<path d="M214.769 73.6249C216.802 73.6249 218.45 71.9768 218.45 69.9437C218.45 67.9106 216.802 66.2625 214.769 66.2625C212.736 66.2625 211.087 67.9106 211.087 69.9437C211.087 71.9768 212.736 73.6249 214.769 73.6249Z" fill="#ABB2BF"/>
<path d="M214.769 95.7123C216.802 95.7123 218.45 94.0642 218.45 92.0312C218.45 89.9981 216.802 88.35 214.769 88.35C212.736 88.35 211.087 89.9981 211.087 92.0312C211.087 94.0642 212.736 95.7123 214.769 95.7123Z" fill="#ABB2BF"/>
<path d="M214.769 117.8C216.802 117.8 218.45 116.152 218.45 114.119C218.45 112.086 216.802 110.438 214.769 110.438C212.736 110.438 211.087 112.086 211.087 114.119C211.087 116.152 212.736 117.8 214.769 117.8Z" fill="#ABB2BF"/>
<path d="M236.856 7.36237C238.889 7.36237 240.537 5.71425 240.537 3.68119C240.537 1.64812 238.889 0 236.856 0C234.823 0 233.175 1.64812 233.175 3.68119C233.175 5.71425 234.823 7.36237 236.856 7.36237Z" fill="#ABB2BF"/>
<path d="M236.856 29.4499C238.889 29.4499 240.537 27.8018 240.537 25.7687C240.537 23.7356 238.889 22.0875 236.856 22.0875C234.823 22.0875 233.175 23.7356 233.175 25.7687C233.175 27.8018 234.823 29.4499 236.856 29.4499Z" fill="#ABB2BF"/>
<path d="M236.856 51.5374C238.889 51.5374 240.537 49.8892 240.537 47.8562C240.537 45.8231 238.889 44.175 236.856 44.175C234.823 44.175 233.175 45.8231 233.175 47.8562C233.175 49.8892 234.823 51.5374 236.856 51.5374Z" fill="#ABB2BF"/>
<path d="M236.856 73.6249C238.889 73.6249 240.537 71.9768 240.537 69.9437C240.537 67.9106 238.889 66.2625 236.856 66.2625C234.823 66.2625 233.175 67.9106 233.175 69.9437C233.175 71.9768 234.823 73.6249 236.856 73.6249Z" fill="#ABB2BF"/>
<path d="M236.856 95.7123C238.889 95.7123 240.537 94.0642 240.537 92.0312C240.537 89.9981 238.889 88.35 236.856 88.35C234.823 88.35 233.175 89.9981 233.175 92.0312C233.175 94.0642 234.823 95.7123 236.856 95.7123Z" fill="#ABB2BF"/>
<path d="M236.856 117.8C238.889 117.8 240.537 116.152 240.537 114.119C240.537 112.086 238.889 110.438 236.856 110.438C234.823 110.438 233.175 112.086 233.175 114.119C233.175 116.152 234.823 117.8 236.856 117.8Z" fill="#ABB2BF"/>
<path d="M258.944 7.36237C260.977 7.36237 262.625 5.71425 262.625 3.68119C262.625 1.64812 260.977 0 258.944 0C256.911 0 255.263 1.64812 255.263 3.68119C255.263 5.71425 256.911 7.36237 258.944 7.36237Z" fill="#ABB2BF"/>
<path d="M258.944 29.4499C260.977 29.4499 262.625 27.8018 262.625 25.7687C262.625 23.7356 260.977 22.0875 258.944 22.0875C256.911 22.0875 255.263 23.7356 255.263 25.7687C255.263 27.8018 256.911 29.4499 258.944 29.4499Z" fill="#ABB2BF"/>
<path d="M258.944 51.5374C260.977 51.5374 262.625 49.8892 262.625 47.8562C262.625 45.8231 260.977 44.175 258.944 44.175C256.911 44.175 255.263 45.8231 255.263 47.8562C255.263 49.8892 256.911 51.5374 258.944 51.5374Z" fill="#ABB2BF"/>
<path d="M258.944 73.6249C260.977 73.6249 262.625 71.9768 262.625 69.9437C262.625 67.9106 260.977 66.2625 258.944 66.2625C256.911 66.2625 255.263 67.9106 255.263 69.9437C255.263 71.9768 256.911 73.6249 258.944 73.6249Z" fill="#ABB2BF"/>
<path d="M258.944 95.7123C260.977 95.7123 262.625 94.0642 262.625 92.0312C262.625 89.9981 260.977 88.35 258.944 88.35C256.911 88.35 255.263 89.9981 255.263 92.0312C255.263 94.0642 256.911 95.7123 258.944 95.7123Z" fill="#ABB2BF"/>
<path d="M258.944 117.8C260.977 117.8 262.625 116.152 262.625 114.119C262.625 112.086 260.977 110.438 258.944 110.438C256.911 110.438 255.263 112.086 255.263 114.119C255.263 116.152 256.911 117.8 258.944 117.8Z" fill="#ABB2BF"/>
<path d="M281.031 7.36237C283.064 7.36237 284.712 5.71425 284.712 3.68119C284.712 1.64812 283.064 0 281.031 0C278.998 0 277.35 1.64812 277.35 3.68119C277.35 5.71425 278.998 7.36237 281.031 7.36237Z" fill="#ABB2BF"/>
<path d="M281.031 29.4499C283.064 29.4499 284.712 27.8018 284.712 25.7687C284.712 23.7356 283.064 22.0875 281.031 22.0875C278.998 22.0875 277.35 23.7356 277.35 25.7687C277.35 27.8018 278.998 29.4499 281.031 29.4499Z" fill="#ABB2BF"/>
<path d="M281.031 51.5374C283.064 51.5374 284.712 49.8892 284.712 47.8562C284.712 45.8231 283.064 44.175 281.031 44.175C278.998 44.175 277.35 45.8231 277.35 47.8562C277.35 49.8892 278.998 51.5374 281.031 51.5374Z" fill="#ABB2BF"/>
<path d="M281.031 73.6249C283.064 73.6249 284.712 71.9768 284.712 69.9437C284.712 67.9106 283.064 66.2625 281.031 66.2625C278.998 66.2625 277.35 67.9106 277.35 69.9437C277.35 71.9768 278.998 73.6249 281.031 73.6249Z" fill="#ABB2BF"/>
<path d="M281.031 95.7123C283.064 95.7123 284.712 94.0642 284.712 92.0312C284.712 89.9981 283.064 88.35 281.031 88.35C278.998 88.35 277.35 89.9981 277.35 92.0312C277.35 94.0642 278.998 95.7123 281.031 95.7123Z" fill="#ABB2BF"/>
<path d="M281.031 117.8C283.064 117.8 284.712 116.152 284.712 114.119C284.712 112.086 283.064 110.438 281.031 110.438C278.998 110.438 277.35 112.086 277.35 114.119C277.35 116.152 278.998 117.8 281.031 117.8Z" fill="#ABB2BF"/>
<path d="M303.119 7.36237C305.152 7.36237 306.8 5.71425 306.8 3.68119C306.8 1.64812 305.152 0 303.119 0C301.086 0 299.438 1.64812 299.438 3.68119C299.438 5.71425 301.086 7.36237 303.119 7.36237Z" fill="#ABB2BF"/>
<path d="M303.119 29.4499C305.152 29.4499 306.8 27.8018 306.8 25.7687C306.8 23.7356 305.152 22.0875 303.119 22.0875C301.086 22.0875 299.438 23.7356 299.438 25.7687C299.438 27.8018 301.086 29.4499 303.119 29.4499Z" fill="#ABB2BF"/>
<path d="M303.119 51.5374C305.152 51.5374 306.8 49.8892 306.8 47.8562C306.8 45.8231 305.152 44.175 303.119 44.175C301.086 44.175 299.438 45.8231 299.438 47.8562C299.438 49.8892 301.086 51.5374 303.119 51.5374Z" fill="#ABB2BF"/>
<path d="M303.119 73.6249C305.152 73.6249 306.8 71.9768 306.8 69.9437C306.8 67.9106 305.152 66.2625 303.119 66.2625C301.086 66.2625 299.438 67.9106 299.438 69.9437C299.438 71.9768 301.086 73.6249 303.119 73.6249Z" fill="#ABB2BF"/>
<path d="M303.119 95.7123C305.152 95.7123 306.8 94.0642 306.8 92.0312C306.8 89.9981 305.152 88.35 303.119 88.35C301.086 88.35 299.438 89.9981 299.438 92.0312C299.438 94.0642 301.086 95.7123 303.119 95.7123Z" fill="#ABB2BF"/>
<path d="M303.119 117.8C305.152 117.8 306.8 116.152 306.8 114.119C306.8 112.086 305.152 110.438 303.119 110.438C301.086 110.438 299.438 112.086 299.438 114.119C299.438 116.152 301.086 117.8 303.119 117.8Z" fill="#ABB2BF"/>
</g>
<defs>
<clipPath id="clip0_93_81">
<rect width="165" height="156.832" fill="white" transform="translate(255 142)"/>
</clipPath>
<clipPath id="clip1_93_81">
<rect width="172.8" height="172.8" fill="white" transform="translate(0 137)"/>
</clipPath>
<clipPath id="clip2_93_81">
<rect width="117.8" height="117.8" fill="white" transform="translate(189)"/>
</clipPath>
</defs>
</svg>
