<svg width="749" height="205" viewBox="0 0 749 205" fill="none" xmlns="http://www.w3.org/2000/svg">
<path fill-rule="evenodd" clip-rule="evenodd" d="M13.1528 23.1566V31.3H23.2869V22.9756C23.2869 19.6277 23.9806 16.491 25.368 13.5654C26.7856 10.6096 28.4445 7.77446 30.3446 5.05997L24.5537 0.354856C22.1408 2.28516 20.0748 4.56231 18.3556 7.18632C16.6666 9.78017 15.3697 12.4796 14.4648 15.2845C13.5902 18.0594 13.1528 20.6834 13.1528 23.1566ZM36.3165 23.1566V31.3H46.4506V22.9756C46.4506 19.6277 47.1443 16.491 48.5317 13.5654C49.9492 10.6096 51.6081 7.77446 53.5082 5.05997L47.7173 0.354856C45.3045 2.28516 43.2384 4.56231 41.5192 7.18632C39.8302 9.78017 38.5333 12.4796 37.6285 15.2845C36.7538 18.0594 36.3165 20.6834 36.3165 23.1566ZM747.165 18.835H67V17.1651H748H748.835V18V190H747.165V18.835ZM1.83494 189.165V18H0.165039V190V190.835H0.999991H681V189.165H1.83494ZM711.182 173.345V181.489C711.182 183.962 710.73 186.601 709.825 189.406C708.951 192.181 707.654 194.88 705.934 197.504C704.245 200.098 702.194 202.36 699.782 204.291L693.991 199.586C695.891 196.871 697.535 194.051 698.922 191.125C700.34 188.17 701.048 185.018 701.048 181.67V173.345H711.182ZM734.697 173.345V181.489C734.697 183.962 734.244 186.601 733.339 189.406C732.465 192.181 731.168 194.88 729.449 197.504C727.76 200.098 725.709 202.36 723.296 204.291L717.505 199.586C719.405 196.871 721.049 194.051 722.436 191.125C723.854 188.17 724.563 185.018 724.563 181.67V173.345H734.697Z" fill="#ABB2BF"/>
</svg>
